<svg xmlns="http://www.w3.org/2000/svg" xmlns:xlink="http://www.w3.org/1999/xlink" width="700" zoomAndPan="magnify" viewBox="0 0 525 525.000007" height="700" preserveAspectRatio="xMidYMid meet" version="1.0"><defs><filter x="0%" y="0%" width="100%" height="100%" id="3f8b2c0169"><feColorMatrix values="0 0 0 0 1 0 0 0 0 1 0 0 0 0 1 0 0 0 1 0" color-interpolation-filters="sRGB"/></filter><g/><clipPath id="92f1340bfc"><path d="M 0.5 0 L 524.5 0 L 524.5 524 L 0.5 524 Z M 0.5 0 " clip-rule="nonzero"/></clipPath><mask id="f8713cc1cf"><g filter="url(#3f8b2c0169)"><rect x="-52.5" width="630" fill="#000000" y="-52.500001" height="630.000008" fill-opacity="0.4"/></g></mask><clipPath id="ed63e65be8"><path d="M 0.5 0 L 524.492188 0 L 524.492188 523.996094 L 0.5 523.996094 Z M 0.5 0 " clip-rule="nonzero"/></clipPath><clipPath id="689ddeb10c"><path d="M 524.492188 112.285156 L 524.492188 411.710938 C 524.492188 473.722656 474.222656 523.996094 412.207031 523.996094 L 112.785156 523.996094 C 50.769531 523.996094 0.5 473.722656 0.5 411.710938 L 0.5 112.285156 C 0.5 50.273438 50.769531 0 112.785156 0 L 412.207031 0 C 474.222656 0 524.492188 50.273438 524.492188 112.285156 Z M 524.492188 112.285156 " clip-rule="nonzero"/></clipPath><clipPath id="4bc61ec231"><path d="M 0.5 0 L 524.492188 0 L 524.492188 523.996094 L 0.5 523.996094 Z M 0.5 0 " clip-rule="nonzero"/></clipPath><clipPath id="f0b9d8243a"><path d="M 524.492188 112.285156 L 524.492188 411.710938 C 524.492188 473.722656 474.222656 523.996094 412.207031 523.996094 L 112.785156 523.996094 C 50.769531 523.996094 0.5 473.722656 0.5 411.710938 L 0.5 112.285156 C 0.5 50.273438 50.769531 0 112.785156 0 L 412.207031 0 C 474.222656 0 524.492188 50.273438 524.492188 112.285156 Z M 524.492188 112.285156 " clip-rule="nonzero"/></clipPath><clipPath id="b1ce78c3e0"><rect x="0" width="525" y="0" height="524"/></clipPath><clipPath id="dbfef0d34d"><rect x="0" width="525" y="0" height="524"/></clipPath><clipPath id="1268fd6b83"><path d="M 0.316406 0.347656 L 159 0.347656 L 159 299.777344 L 0.316406 299.777344 Z M 0.316406 0.347656 " clip-rule="nonzero"/></clipPath><clipPath id="8feef42adc"><rect x="0" width="159" y="0" height="300"/></clipPath><clipPath id="91c737ccb7"><path d="M 150 0.347656 L 339.988281 0.347656 L 339.988281 299.777344 L 150 299.777344 Z M 150 0.347656 " clip-rule="nonzero"/></clipPath><clipPath id="10c04b710c"><path d="M 1 65 L 189.988281 65 L 189.988281 238 L 1 238 Z M 1 65 " clip-rule="nonzero"/></clipPath><clipPath id="dc49a57858"><rect x="0" width="190" y="0" height="300"/></clipPath><clipPath id="1d67e86bc0"><rect x="0" width="340" y="0" height="300"/></clipPath></defs><g clip-path="url(#92f1340bfc)"><g mask="url(#f8713cc1cf)"><g transform="matrix(1, 0, 0, 1, 0.000000000000000056, 0.000000000000109615)"><g clip-path="url(#dbfef0d34d)"><g clip-path="url(#ed63e65be8)"><g clip-path="url(#689ddeb10c)"><g transform="matrix(1, 0, 0, 1, 0.000000000000000056, 0.000000000000109615)"><g clip-path="url(#b1ce78c3e0)"><g clip-path="url(#4bc61ec231)"><g clip-path="url(#f0b9d8243a)"><path fill="#030116" d="M 0.5 0 L 524.492188 0 L 524.492188 523.996094 L 0.5 523.996094 Z M 0.5 0 " fill-opacity="1" fill-rule="nonzero"/></g></g></g></g></g></g></g></g></g></g><g transform="matrix(1, 0, 0, 1, 96, 112)"><g clip-path="url(#1d67e86bc0)"><g clip-path="url(#1268fd6b83)"><g transform="matrix(1, 0, 0, 1, 0.000000000000014211, 0.000000000000113687)"><g clip-path="url(#8feef42adc)"><g fill="#ffffff" fill-opacity="1"><g transform="translate(0.435969, 237.080325)"><g><path d="M 71.875 -128.046875 L 71.875 -98.609375 L 143.5 -98.609375 L 143.5 -54.953125 L 71.875 -54.953125 L 71.875 0 L 13.984375 0 L 13.984375 -171.703125 L 153.5625 -171.703125 L 153.5625 -128.046875 Z M 71.875 -128.046875 "/></g></g></g></g></g></g><g clip-path="url(#91c737ccb7)"><g transform="matrix(1, 0, 0, 1, 150, 0.000000000000113687)"><g clip-path="url(#dc49a57858)"><g clip-path="url(#10c04b710c)"><g fill="#d9d9d9" fill-opacity="1"><g transform="translate(8.405271, 237.080325)"><g><path d="M 116.03125 -62.3125 L 116.03125 0 L 58.140625 0 L 58.140625 -63.046875 L -6.625 -171.703125 L 54.453125 -171.703125 L 89.53125 -112.34375 L 124.859375 -171.703125 L 180.78125 -171.703125 Z M 116.03125 -62.3125 "/></g></g></g></g></g></g></g></g></g></svg>